<svg xmlns="http://www.w3.org/2000/svg" width="256" height="256" viewBox="0 0 100 100"><rect width="100" height="100" rx="20" fill="#3f4e4f"></rect><path d="M41.00 59.46L51.40 59.46Q50.81 67.61 45.39 72.29Q39.96 76.97 31.09 76.97L31.09 76.97Q21.38 76.97 15.82 70.44Q10.25 63.90 10.25 52.50L10.25 52.50L10.25 49.41Q10.25 42.13 12.82 36.58Q15.38 31.04 20.15 28.07Q24.92 25.11 31.23 25.11L31.23 25.11Q39.96 25.11 45.30 29.79Q50.64 34.47 51.47 42.93L51.47 42.93L41.07 42.93Q40.69 38.04 38.35 35.84Q36.01 33.64 31.23 33.64L31.23 33.64Q26.03 33.64 23.44 37.36Q20.86 41.09 20.79 48.93L20.79 48.93L20.79 52.74Q20.79 60.92 23.27 64.70Q25.75 68.48 31.09 68.48L31.09 68.48Q35.91 68.48 38.28 66.28Q40.66 64.08 41.00 59.46L41.00 59.46ZM67.35 23.03L67.35 42.86Q71.34 38.07 77.37 38.07L77.37 38.07Q89.57 38.07 89.75 52.25L89.75 52.25L89.75 76.28L79.73 76.28L79.73 52.53Q79.73 49.31 78.34 47.76Q76.95 46.22 73.73 46.22L73.73 46.22Q69.33 46.22 67.35 49.62L67.35 49.62L67.35 76.28L57.33 76.28L57.33 23.03L67.35 23.03Z" fill="#dcd7c9"></path></svg>